<?xml version="1.0" encoding="UTF-8"?>
<!DOCTYPE svg PUBLIC "-//W3C//DTD SVG 1.1//EN" "http://www.w3.org/Graphics/SVG/1.1/DTD/svg11.dtd">
<svg xmlns="http://www.w3.org/2000/svg" version="1.1" width="500px" height="500px" style="shape-rendering:geometricPrecision; text-rendering:geometricPrecision; image-rendering:optimizeQuality; fill-rule:evenodd; clip-rule:evenodd" xmlns:xlink="http://www.w3.org/1999/xlink">
<g><path style="opacity:0.333" fill="#babcff" d="M 375.5,172.5 C 370.175,171.239 364.842,171.239 359.5,172.5C 362.017,171.027 364.85,170.36 368,170.5C 370.866,170.3 373.366,170.967 375.5,172.5 Z"/></g>
<g><path style="opacity:0.686" fill="#a19dff" d="M 447.5,173.5 C 446.738,175.262 445.404,176.262 443.5,176.5C 444.262,174.738 445.596,173.738 447.5,173.5 Z"/></g>
<g><path style="opacity:1" fill="#1e22ff" d="M 375.5,172.5 C 375.5,173.5 375.5,174.5 375.5,175.5C 379.138,174.737 380.638,176.07 380,179.5C 377.557,177.337 375.057,177.17 372.5,179C 366.362,185.604 360.695,192.604 355.5,200C 354.181,200.195 352.847,200.028 351.5,199.5C 350.609,197.709 349.609,195.876 348.5,194C 347.571,184.356 351.238,177.189 359.5,172.5C 364.842,171.239 370.175,171.239 375.5,172.5 Z"/></g>
<g><path style="opacity:0.71" fill="#b5b2fe" d="M 381.5,176.5 C 382.833,177.167 383.833,178.167 384.5,179.5C 382.5,179.5 381.5,178.5 381.5,176.5 Z"/></g>
<g><path style="opacity:1" fill="#281ffe" d="M 466.5,206.5 C 465.504,206.586 464.671,206.252 464,205.5C 462.076,205.783 460.409,207.116 459,209.5C 452.117,200.75 444.451,193.75 436,188.5C 435.678,186.311 436.178,184.311 437.5,182.5C 439.167,180.167 441.167,178.167 443.5,176.5C 445.404,176.262 446.738,175.262 447.5,173.5C 457.168,168.346 465.668,170.013 473,178.5C 478.121,189.717 475.954,199.051 466.5,206.5 Z"/></g>
<g><path style="opacity:1" fill="#1933ff" d="M 375.5,172.5 C 377.853,173.34 379.853,174.674 381.5,176.5C 381.5,178.5 382.5,179.5 384.5,179.5C 385.415,181.928 386.582,184.261 388,186.5C 389.518,186.057 390.685,186.724 391.5,188.5C 386.798,190.846 382.464,193.679 378.5,197C 378.833,197.333 379.167,197.667 379.5,198C 377.998,198.583 376.665,199.416 375.5,200.5C 372.518,203.783 370.018,207.449 368,211.5C 366.053,211.167 363.886,210.5 361.5,209.5C 360.5,209.167 359.833,208.5 359.5,207.5C 358.738,205.738 357.404,204.738 355.5,204.5C 353.937,203.055 352.604,201.389 351.5,199.5C 352.847,200.028 354.181,200.195 355.5,200C 360.695,192.604 366.362,185.604 372.5,179C 375.057,177.17 377.557,177.337 380,179.5C 380.638,176.07 379.138,174.737 375.5,175.5C 375.5,174.5 375.5,173.5 375.5,172.5 Z"/></g>
<g><path style="opacity:1" fill="#2140fe" d="M 40.5,196.5 C 40.5,222.167 40.5,247.833 40.5,273.5C 54.8333,273.5 69.1667,273.5 83.5,273.5C 87.0698,273.901 89.2364,275.901 90,279.5C 90.6667,282.5 90.6667,285.5 90,288.5C 89.7767,290.881 88.61,292.547 86.5,293.5C 84.901,293.232 83.5676,293.566 82.5,294.5C 63.1964,295.822 43.8631,295.822 24.5,294.5C 23.4324,293.566 22.099,293.232 20.5,293.5C 20.0269,292.094 19.0269,291.427 17.5,291.5C 16.596,290.791 16.2627,289.791 16.5,288.5C 16.5,257.833 16.5,227.167 16.5,196.5C 16.6282,194.91 17.2949,193.577 18.5,192.5C 23.9837,190.488 29.6504,189.988 35.5,191C 38.079,192.076 39.7457,193.909 40.5,196.5 Z"/></g>
<g><path style="opacity:1" fill="#1f36ff" d="M 437.5,182.5 C 436.178,184.311 435.678,186.311 436,188.5C 444.451,193.75 452.117,200.75 459,209.5C 460.409,207.116 462.076,205.783 464,205.5C 464.671,206.252 465.504,206.586 466.5,206.5C 463.833,209.833 460.833,212.833 457.5,215.5C 455.833,215.5 454.167,215.5 452.5,215.5C 452.649,214.448 452.483,213.448 452,212.5C 445.872,205.222 438.705,199.222 430.5,194.5C 427.151,195.83 426.818,195.33 429.5,193C 428.944,192.617 428.611,192.117 428.5,191.5C 431.167,188.167 434.167,185.167 437.5,182.5 Z"/></g>
<g><path style="opacity:1" fill="#2445ff" d="M 428.5,191.5 C 428.611,192.117 428.944,192.617 429.5,193C 426.818,195.33 427.151,195.83 430.5,194.5C 438.705,199.222 445.872,205.222 452,212.5C 452.483,213.448 452.649,214.448 452.5,215.5C 454.167,215.5 455.833,215.5 457.5,215.5C 455.5,218.167 453.167,220.5 450.5,222.5C 449.448,222.649 448.448,222.483 447.5,222C 445.751,217.529 442.585,213.695 438,210.5C 436.933,212.283 435.433,212.783 433.5,212C 432.514,209.672 430.514,207.672 427.5,206C 424.382,204.273 421.049,203.439 417.5,203.5C 418.167,202.5 418.833,201.5 419.5,200.5C 422.167,197.167 425.167,194.167 428.5,191.5 Z"/></g>
<g><path style="opacity:0.678" fill="#b4b2ff" d="M 355.5,204.5 C 357.404,204.738 358.738,205.738 359.5,207.5C 357.596,207.262 356.262,206.262 355.5,204.5 Z"/></g>
<g><path style="opacity:1" fill="#1b5fff" d="M 400.5,195.5 C 402.167,196.5 403.5,197.833 404.5,199.5C 406.181,202.689 407.515,205.689 408.5,208.5C 405.056,211.27 402.39,214.603 400.5,218.5C 398.5,220.833 396.5,223.167 394.5,225.5C 391.5,228.167 388.5,230.833 385.5,233.5C 385.5,232.833 385.167,232.5 384.5,232.5C 380.833,229.5 377.5,226.167 374.5,222.5C 377.306,222.822 379.806,223.822 382,225.5C 386.748,217.025 392.914,209.692 400.5,203.5C 401.325,202.614 402.325,202.281 403.5,202.5C 402.523,200.179 401.523,197.846 400.5,195.5 Z"/></g>
<g><path style="opacity:0.694" fill="#9fb1ff" d="M 419.5,200.5 C 418.833,201.5 418.167,202.5 417.5,203.5C 415.833,204.5 414.5,205.833 413.5,207.5C 412.833,207.5 412.167,207.5 411.5,207.5C 411.5,207.167 411.5,206.833 411.5,206.5C 413.902,204.091 416.569,202.091 419.5,200.5 Z"/></g>
<g><path style="opacity:0.766" fill="#99a9ff" d="M 16.5,196.5 C 16.5,227.167 16.5,257.833 16.5,288.5C 15.6862,286.369 15.1862,284.036 15,281.5C 14.3333,255.5 14.3333,229.5 15,203.5C 15.1862,200.964 15.6862,198.631 16.5,196.5 Z"/></g>
<g><path style="opacity:1" fill="#1b4eff" d="M 384.5,179.5 C 390.167,184.5 395.5,189.833 400.5,195.5C 401.523,197.846 402.523,200.179 403.5,202.5C 402.325,202.281 401.325,202.614 400.5,203.5C 392.914,209.692 386.748,217.025 382,225.5C 379.806,223.822 377.306,222.822 374.5,222.5C 369.833,218.5 365.5,214.167 361.5,209.5C 363.886,210.5 366.053,211.167 368,211.5C 370.018,207.449 372.518,203.783 375.5,200.5C 376.665,199.416 377.998,198.583 379.5,198C 379.167,197.667 378.833,197.333 378.5,197C 382.464,193.679 386.798,190.846 391.5,188.5C 390.685,186.724 389.518,186.057 388,186.5C 386.582,184.261 385.415,181.928 384.5,179.5 Z"/></g>
<g><path style="opacity:1" fill="#145eff" d="M 411.5,207.5 C 412.167,207.5 412.833,207.5 413.5,207.5C 422.107,214.101 430.44,221.101 438.5,228.5C 437.572,229.768 437.405,231.101 438,232.5C 438.928,229.965 440.762,228.965 443.5,229.5C 442.833,230.833 441.833,231.833 440.5,232.5C 439.167,233.5 437.833,234.5 436.5,235.5C 435.504,235.586 434.671,235.252 434,234.5C 433.581,235.672 432.915,236.672 432,237.5C 430.946,234.646 429.446,231.979 427.5,229.5C 421.823,223.824 415.823,218.491 409.5,213.5C 409.167,212.833 408.833,212.167 408.5,211.5C 409.826,210.358 410.826,209.024 411.5,207.5 Z"/></g>
<g><path style="opacity:1" fill="#1e52ff" d="M 417.5,203.5 C 421.049,203.439 424.382,204.273 427.5,206C 430.514,207.672 432.514,209.672 433.5,212C 435.433,212.783 436.933,212.283 438,210.5C 442.585,213.695 445.751,217.529 447.5,222C 448.448,222.483 449.448,222.649 450.5,222.5C 448.5,225.167 446.167,227.5 443.5,229.5C 440.762,228.965 438.928,229.965 438,232.5C 437.405,231.101 437.572,229.768 438.5,228.5C 430.44,221.101 422.107,214.101 413.5,207.5C 414.5,205.833 415.833,204.5 417.5,203.5 Z"/></g>
<g><path style="opacity:1" fill="#116bfe" d="M 404.5,199.5 C 407.167,201.5 409.5,203.833 411.5,206.5C 411.5,206.833 411.5,207.167 411.5,207.5C 410.826,209.024 409.826,210.358 408.5,211.5C 408.833,212.167 409.167,212.833 409.5,213.5C 415.823,218.491 421.823,223.824 427.5,229.5C 429.446,231.979 430.946,234.646 432,237.5C 432.915,236.672 433.581,235.672 434,234.5C 434.671,235.252 435.504,235.586 436.5,235.5C 435.167,237.167 433.833,238.833 432.5,240.5C 430.427,242.58 428.093,244.246 425.5,245.5C 424.883,243.679 424.716,241.679 425,239.5C 423.287,237.493 421.621,235.493 420,233.5C 415.049,230.882 411.049,227.216 408,222.5C 407.667,222.833 407.333,223.167 407,223.5C 405.809,220.466 403.642,218.799 400.5,218.5C 402.39,214.603 405.056,211.27 408.5,208.5C 407.515,205.689 406.181,202.689 404.5,199.5 Z"/></g>
<g><path style="opacity:0.188" fill="#b9c9ff" d="M 134.5,218.5 C 137.553,218.111 140.22,218.777 142.5,220.5C 139.627,220.198 136.961,219.531 134.5,218.5 Z"/></g>
<g><path style="opacity:0.929" fill="#909cff" d="M 121.5,218.5 C 118.495,220.277 115.162,221.277 111.5,221.5C 114.452,219.59 117.786,218.59 121.5,218.5 Z"/></g>
<g><path style="opacity:1" fill="#2242ff" d="M 134.5,218.5 C 136.961,219.531 139.627,220.198 142.5,220.5C 146.897,221.198 150.564,223.198 153.5,226.5C 153.427,228.027 154.094,229.027 155.5,229.5C 158.786,232.4 160.786,236.067 161.5,240.5C 161.259,242.898 161.926,244.898 163.5,246.5C 162.608,251.438 162.274,256.438 162.5,261.5C 162.167,261.5 161.833,261.5 161.5,261.5C 161.5,260.833 161.5,260.167 161.5,259.5C 161.649,258.448 161.483,257.448 161,256.5C 160.209,257.745 159.709,259.078 159.5,260.5C 158.198,262.822 156.198,264.155 153.5,264.5C 140.829,264.333 128.162,264.5 115.5,265C 114.226,265.977 114.226,266.811 115.5,267.5C 115.427,269.027 116.094,270.027 117.5,270.5C 124.178,273.217 131.178,274.217 138.5,273.5C 141.01,273.946 143.01,273.28 144.5,271.5C 147.167,271.5 149.833,271.5 152.5,271.5C 159.379,276.947 160.712,283.447 156.5,291C 154.182,292.993 151.516,294.159 148.5,294.5C 144.922,294.549 141.589,295.215 138.5,296.5C 131.825,296.666 125.158,296.5 118.5,296C 114.891,295.299 111.558,294.132 108.5,292.5C 108.027,291.094 107.027,290.427 105.5,290.5C 103.596,290.262 102.262,289.262 101.5,287.5C 101.027,286.094 100.027,285.427 98.5,285.5C 90.5726,276.379 87.2393,265.712 88.5,253.5C 89.4614,251.735 89.7947,249.735 89.5,247.5C 90.9238,245.485 91.5905,243.152 91.5,240.5C 91.7497,238.326 92.7497,236.659 94.5,235.5C 95.9063,235.027 96.573,234.027 96.5,232.5C 100.248,227.126 105.248,223.459 111.5,221.5C 115.162,221.277 118.495,220.277 121.5,218.5C 125.818,217.246 130.152,217.246 134.5,218.5 Z M 136.5,244.5 C 136.629,246.216 136.962,247.883 137.5,249.5C 136.5,249.833 135.833,250.5 135.5,251.5C 128.646,251.824 121.979,251.491 115.5,250.5C 120.604,241.574 127.604,239.574 136.5,244.5 Z"/></g>
<g><path style="opacity:0.529" fill="#9db2ff" d="M 344.5,220.5 C 339.463,220.413 334.463,220.746 329.5,221.5C 332.186,220.009 335.186,219.343 338.5,219.5C 340.696,219.505 342.696,219.838 344.5,220.5 Z"/></g>
<g><path style="opacity:1" fill="#1f41ff" d="M 206.5,222.5 C 207.765,224.271 209.265,225.938 211,227.5C 212.03,227.164 212.53,226.497 212.5,225.5C 213.254,222.909 214.921,221.076 217.5,220C 221.833,219.333 226.167,219.333 230.5,220C 234.823,221.134 236.823,223.967 236.5,228.5C 236.5,247.5 236.5,266.5 236.5,285.5C 237.154,289.683 235.488,292.516 231.5,294C 226.416,294.778 221.416,294.611 216.5,293.5C 216.027,292.094 215.027,291.427 213.5,291.5C 211.688,287.824 209.688,287.991 207.5,292C 205.975,293.009 204.308,293.509 202.5,293.5C 196.464,293.64 190.464,293.307 184.5,292.5C 182.847,292.34 181.514,291.674 180.5,290.5C 179.738,288.738 178.404,287.738 176.5,287.5C 175.089,285.086 173.089,283.419 170.5,282.5C 170.167,281.833 169.833,281.167 169.5,280.5C 169.367,277.634 168.034,275.634 165.5,274.5C 163.733,272.208 162.733,269.542 162.5,266.5C 162.5,264.833 162.5,263.167 162.5,261.5C 162.274,256.438 162.608,251.438 163.5,246.5C 164.301,244.958 164.634,243.292 164.5,241.5C 165.11,239.566 166.11,237.899 167.5,236.5C 168.906,236.027 169.573,235.027 169.5,233.5C 179.098,220.353 191.431,216.687 206.5,222.5 Z M 204.5,246.5 C 205.5,248.167 206.833,249.5 208.5,250.5C 210.066,254.19 210.399,258.19 209.5,262.5C 208.094,262.973 207.427,263.973 207.5,265.5C 202.336,268.98 197.003,269.314 191.5,266.5C 190.833,265.167 189.833,264.167 188.5,263.5C 185.299,255.484 187.632,249.65 195.5,246C 198.555,245.366 201.555,245.532 204.5,246.5 Z"/></g>
<g><path style="opacity:1" fill="#2641ff" d="M 295.5,224.5 C 296.301,226.793 296.968,226.46 297.5,223.5C 298.122,221.665 299.456,220.498 301.5,220C 306.167,219.333 310.833,219.333 315.5,220C 318.079,221.076 319.746,222.909 320.5,225.5C 320.345,228.853 321.012,229.186 322.5,226.5C 324.296,224.1 326.63,222.433 329.5,221.5C 334.463,220.746 339.463,220.413 344.5,220.5C 350.53,221.347 355.53,224.013 359.5,228.5C 359.738,230.404 360.738,231.738 362.5,232.5C 364.95,234.629 366.617,237.296 367.5,240.5C 367.41,243.152 368.076,245.485 369.5,247.5C 370.437,255.445 370.77,263.445 370.5,271.5C 370.666,277.176 370.499,282.843 370,288.5C 368.188,292.608 365.021,294.608 360.5,294.5C 356.958,294.813 353.625,294.479 350.5,293.5C 350.027,292.094 349.027,291.427 347.5,291.5C 344.795,287.621 344.129,283.621 345.5,279.5C 344.693,270.214 344.193,260.881 344,251.5C 342.37,248.432 339.87,246.432 336.5,245.5C 335.551,244.848 334.385,244.514 333,244.5C 330.779,244.393 328.946,245.06 327.5,246.5C 324.8,248.046 322.967,250.379 322,253.5C 321.667,265.167 321.333,276.833 321,288.5C 320.388,291.115 318.888,292.781 316.5,293.5C 311.167,293.5 305.833,293.5 300.5,293.5C 300.027,292.094 299.027,291.427 297.5,291.5C 296.766,290.292 296.433,288.959 296.5,287.5C 296.667,269.497 296.5,251.497 296,233.5C 295.187,235.436 294.687,237.436 294.5,239.5C 293.409,242.428 291.409,244.594 288.5,246C 284.171,245.844 279.837,245.344 275.5,244.5C 272.139,244.112 269.306,245.112 267,247.5C 265.862,260.314 265.028,273.147 264.5,286C 265.234,289.815 263.568,292.315 259.5,293.5C 256.15,293.665 252.817,293.498 249.5,293C 250.167,292.667 250.833,292.333 251.5,292C 247.647,291.553 244.314,290.053 241.5,287.5C 240.5,266.511 240.167,245.511 240.5,224.5C 240.328,223.508 240.662,222.842 241.5,222.5C 243.027,222.573 244.027,221.906 244.5,220.5C 250.172,219.101 255.839,219.268 261.5,221C 262.823,221.816 263.489,222.983 263.5,224.5C 263.281,225.675 263.614,226.675 264.5,227.5C 266.188,226.479 267.521,225.145 268.5,223.5C 270.027,223.573 271.027,222.906 271.5,221.5C 278.255,217.691 285.255,217.525 292.5,221C 293.71,222.039 294.71,223.206 295.5,224.5 Z"/></g>
<g><path style="opacity:0.784" fill="#a4b1ff" d="M 244.5,220.5 C 244.027,221.906 243.027,222.573 241.5,222.5C 241.973,221.094 242.973,220.427 244.5,220.5 Z"/></g>
<g><path style="opacity:0.757" fill="#9fb1ff" d="M 271.5,221.5 C 271.027,222.906 270.027,223.573 268.5,223.5C 268.973,222.094 269.973,221.427 271.5,221.5 Z"/></g>
<g><path style="opacity:0.694" fill="#9caeff" d="M 268.5,223.5 C 267.521,225.145 266.188,226.479 264.5,227.5C 263.614,226.675 263.281,225.675 263.5,224.5C 264.117,224.611 264.617,224.944 265,225.5C 265.816,224.177 266.983,223.511 268.5,223.5 Z"/></g>
<g><path style="opacity:1" fill="#1079fe" d="M 400.5,218.5 C 403.642,218.799 405.809,220.466 407,223.5C 407.333,223.167 407.667,222.833 408,222.5C 411.049,227.216 415.049,230.882 420,233.5C 421.621,235.493 423.287,237.493 425,239.5C 424.716,241.679 424.883,243.679 425.5,245.5C 422.833,248.833 419.833,251.833 416.5,254.5C 416.838,251.989 416.838,249.655 416.5,247.5C 408.737,240.404 401.404,233.071 394.5,225.5C 396.5,223.167 398.5,220.833 400.5,218.5 Z"/></g>
<g><path style="opacity:0.357" fill="#b8c9fc" d="M 297.5,223.5 C 296.968,226.46 296.301,226.793 295.5,224.5C 296.167,224.167 296.833,223.833 297.5,223.5 Z"/></g>
<g><path style="opacity:0.014" fill="#e2ecff" d="M 320.5,225.5 C 321.167,225.833 321.833,226.167 322.5,226.5C 321.012,229.186 320.345,228.853 320.5,225.5 Z"/></g>
<g><path style="opacity:1" fill="#8888fd" d="M 206.5,222.5 C 208.517,223.529 210.517,224.529 212.5,225.5C 212.53,226.497 212.03,227.164 211,227.5C 209.265,225.938 207.765,224.271 206.5,222.5 Z"/></g>
<g><path style="opacity:0.639" fill="#abb6ff" d="M 153.5,226.5 C 154.906,226.973 155.573,227.973 155.5,229.5C 154.094,229.027 153.427,228.027 153.5,226.5 Z"/></g>
<g><path style="opacity:0.753" fill="#a9b1ff" d="M 359.5,228.5 C 361.262,229.262 362.262,230.596 362.5,232.5C 360.738,231.738 359.738,230.404 359.5,228.5 Z"/></g>
<g><path style="opacity:1" fill="#0c93fe" d="M 394.5,225.5 C 401.404,233.071 408.737,240.404 416.5,247.5C 416.838,249.655 416.838,251.989 416.5,254.5C 414.562,258.169 411.562,259.336 407.5,258C 400.671,252.171 394.171,246.004 388,239.5C 387.764,237.189 386.931,235.189 385.5,233.5C 388.5,230.833 391.5,228.167 394.5,225.5 Z"/></g>
<g><path style="opacity:0.651" fill="#93a2ff" d="M 96.5,232.5 C 96.573,234.027 95.9063,235.027 94.5,235.5C 94.427,233.973 95.0937,232.973 96.5,232.5 Z"/></g>
<g><path style="opacity:0.4" fill="#afbfff" d="M 169.5,233.5 C 169.573,235.027 168.906,236.027 167.5,236.5C 167.427,234.973 168.094,233.973 169.5,233.5 Z"/></g>
<g><path style="opacity:0.131" fill="#e7edff" d="M 236.5,228.5 C 237.167,229.167 237.833,229.833 238.5,230.5C 238.865,249.029 238.198,267.362 236.5,285.5C 236.5,266.5 236.5,247.5 236.5,228.5 Z"/></g>
<g><path style="opacity:0.923" fill="#515efc" d="M 240.5,224.5 C 240.167,245.511 240.5,266.511 241.5,287.5C 244.314,290.053 247.647,291.553 251.5,292C 250.833,292.333 250.167,292.667 249.5,293C 252.817,293.498 256.15,293.665 259.5,293.5C 258.469,294.249 257.302,294.915 256,295.5C 252.325,295.581 248.492,295.081 244.5,294C 241.441,292.401 239.441,289.901 238.5,286.5C 239.826,267.706 239.826,249.039 238.5,230.5C 238.595,228.214 239.262,226.214 240.5,224.5 Z"/></g>
<g><path style="opacity:1" fill="#15a5fe" d="M 384.5,232.5 C 385.167,232.5 385.5,232.833 385.5,233.5C 386.931,235.189 387.764,237.189 388,239.5C 394.171,246.004 400.671,252.171 407.5,258C 411.562,259.336 414.562,258.169 416.5,254.5C 419.833,251.833 422.833,248.833 425.5,245.5C 428.093,244.246 430.427,242.58 432.5,240.5C 432.953,241.458 433.619,242.292 434.5,243C 430.895,246.27 428.062,250.104 426,254.5C 425.667,254.167 425.333,253.833 425,253.5C 424.5,254.667 423.667,255.5 422.5,256C 423.167,256.333 423.833,256.667 424.5,257C 421.962,259.442 419.128,259.942 416,258.5C 413.853,259.113 411.686,259.779 409.5,260.5C 406.327,262.555 403.161,264.555 400,266.5C 394.642,261.894 389.142,257.394 383.5,253C 383.833,252.667 384.167,252.333 384.5,252C 381.532,250.207 379.532,247.707 378.5,244.5C 379.376,244.631 380.043,244.298 380.5,243.5C 379.624,242.749 378.624,242.249 377.5,242C 378.381,241.292 379.047,240.458 379.5,239.5C 381.58,237.427 383.246,235.093 384.5,232.5 Z"/></g>
<g><path style="opacity:1" fill="#1db1fe" d="M 440.5,232.5 C 441.415,234.754 442.748,236.754 444.5,238.5C 445.777,241.205 445.61,243.872 444,246.5C 438.656,255.508 431.656,262.842 423,268.5C 422.329,267.748 421.496,267.414 420.5,267.5C 417.853,265.189 415.186,262.856 412.5,260.5C 410.147,262.523 407.814,264.523 405.5,266.5C 405.265,265.903 404.765,265.57 404,265.5C 402.246,267.114 400.246,268.447 398,269.5C 397,268.167 396,268.167 395,269.5C 389.717,264.891 384.384,260.225 379,255.5C 377.545,252.088 375.712,248.921 373.5,246C 374.905,244.731 376.571,244.231 378.5,244.5C 379.532,247.707 381.532,250.207 384.5,252C 384.167,252.333 383.833,252.667 383.5,253C 389.142,257.394 394.642,261.894 400,266.5C 403.161,264.555 406.327,262.555 409.5,260.5C 411.686,259.779 413.853,259.113 416,258.5C 419.128,259.942 421.962,259.442 424.5,257C 423.833,256.667 423.167,256.333 422.5,256C 423.667,255.5 424.5,254.667 425,253.5C 425.333,253.833 425.667,254.167 426,254.5C 428.062,250.104 430.895,246.27 434.5,243C 433.619,242.292 432.953,241.458 432.5,240.5C 433.833,238.833 435.167,237.167 436.5,235.5C 437.833,234.5 439.167,233.5 440.5,232.5 Z"/></g>
<g><path style="opacity:0.992" fill="#868fff" d="M 91.5,240.5 C 91.5905,243.152 90.9238,245.485 89.5,247.5C 89.4095,244.848 90.0762,242.515 91.5,240.5 Z"/></g>
<g><path style="opacity:0.992" fill="#898dff" d="M 367.5,240.5 C 368.924,242.515 369.59,244.848 369.5,247.5C 368.076,245.485 367.41,243.152 367.5,240.5 Z"/></g>
<g><path style="opacity:0.996" fill="#9098ff" d="M 161.5,240.5 C 162.268,241.263 162.768,242.263 163,243.5C 163.278,242.584 163.778,241.918 164.5,241.5C 164.634,243.292 164.301,244.958 163.5,246.5C 161.926,244.898 161.259,242.898 161.5,240.5 Z"/></g>
<g><path style="opacity:0.373" fill="#a3b6ff" d="M 336.5,245.5 C 333.455,245.508 330.455,245.841 327.5,246.5C 328.946,245.06 330.779,244.393 333,244.5C 334.385,244.514 335.551,244.848 336.5,245.5 Z"/></g>
<g><path style="opacity:0.682" fill="#b3bbff" d="M 204.5,246.5 C 206.833,246.833 208.167,248.167 208.5,250.5C 206.833,249.5 205.5,248.167 204.5,246.5 Z"/></g>
<g><path style="opacity:0.624" fill="#9aadff" d="M 136.5,244.5 C 138.345,245.995 138.678,247.662 137.5,249.5C 136.962,247.883 136.629,246.216 136.5,244.5 Z"/></g>
<g><path style="opacity:1" fill="#1ebdff" d="M 444.5,238.5 C 447.5,240.833 450.167,243.5 452.5,246.5C 451.683,249.479 450.849,252.479 450,255.5C 447.334,258.822 444.667,262.155 442,265.5C 438.27,269.072 434.436,272.405 430.5,275.5C 429.833,275.5 429.167,275.5 428.5,275.5C 425.5,273.167 422.833,270.5 420.5,267.5C 421.496,267.414 422.329,267.748 423,268.5C 431.656,262.842 438.656,255.508 444,246.5C 445.61,243.872 445.777,241.205 444.5,238.5 Z"/></g>
<g><path style="opacity:0.09" fill="#dceaff" d="M 115.5,250.5 C 121.979,251.491 128.646,251.824 135.5,251.5C 128.656,252.819 121.656,252.819 114.5,251.5C 114.624,250.893 114.957,250.56 115.5,250.5 Z"/></g>
<g><path style="opacity:0.843" fill="#9aa9ff" d="M 89.5,247.5 C 89.7947,249.735 89.4614,251.735 88.5,253.5C 87.9569,253.44 87.6236,253.107 87.5,252.5C 88.0276,250.664 88.6942,248.997 89.5,247.5 Z"/></g>
<g><path style="opacity:1" fill="#09c9ff" d="M 452.5,246.5 C 453.167,246.833 453.833,247.167 454.5,247.5C 454.751,249.17 455.418,250.67 456.5,252C 455.978,252.561 455.645,253.228 455.5,254C 456.783,255.136 457.783,256.469 458.5,258C 453.089,267.037 446.089,275.204 437.5,282.5C 435.889,281.68 435.222,280.346 435.5,278.5C 433.336,278.279 431.67,277.279 430.5,275.5C 434.436,272.405 438.27,269.072 442,265.5C 444.667,262.155 447.334,258.822 450,255.5C 450.849,252.479 451.683,249.479 452.5,246.5 Z"/></g>
<g><path style="opacity:1" fill="#2bc3ff" d="M 379.5,239.5 C 379.047,240.458 378.381,241.292 377.5,242C 378.624,242.249 379.624,242.749 380.5,243.5C 380.043,244.298 379.376,244.631 378.5,244.5C 376.571,244.231 374.905,244.731 373.5,246C 375.712,248.921 377.545,252.088 379,255.5C 384.384,260.225 389.717,264.891 395,269.5C 396,268.167 397,268.167 398,269.5C 400.246,268.447 402.246,267.114 404,265.5C 404.765,265.57 405.265,265.903 405.5,266.5C 399.833,272.833 393.833,278.833 387.5,284.5C 384.544,283.863 381.544,283.363 378.5,283C 375.55,279.184 372.883,275.351 370.5,271.5C 370.77,263.445 370.437,255.445 369.5,247.5C 372.588,244.399 375.922,241.733 379.5,239.5 Z"/></g>
<g><path style="opacity:0.043" fill="#dce2ff" d="M 161.5,259.5 C 160.833,259.833 160.167,260.167 159.5,260.5C 159.709,259.078 160.209,257.745 161,256.5C 161.483,257.448 161.649,258.448 161.5,259.5 Z"/></g>
<g><path style="opacity:1" fill="#2fd6ff" d="M 454.5,247.5 C 460.167,252.5 465.5,257.833 470.5,263.5C 469.504,263.414 468.671,263.748 468,264.5C 467.667,263.5 467.333,262.5 467,261.5C 463.498,265.836 460.498,270.503 458,275.5C 454.237,279.186 450.57,282.853 447,286.5C 446.586,286.043 446.086,285.709 445.5,285.5C 444.828,286.949 444.161,288.282 443.5,289.5C 437.892,285.561 432.892,280.894 428.5,275.5C 429.167,275.5 429.833,275.5 430.5,275.5C 431.67,277.279 433.336,278.279 435.5,278.5C 435.222,280.346 435.889,281.68 437.5,282.5C 446.089,275.204 453.089,267.037 458.5,258C 457.783,256.469 456.783,255.136 455.5,254C 455.645,253.228 455.978,252.561 456.5,252C 455.418,250.67 454.751,249.17 454.5,247.5 Z"/></g>
<g><path style="opacity:0.745" fill="#a9baff" d="M 161.5,261.5 C 161.833,261.5 162.167,261.5 162.5,261.5C 162.5,263.167 162.5,264.833 162.5,266.5C 161.766,265.122 161.099,263.622 160.5,262C 160.728,261.601 161.062,261.435 161.5,261.5 Z"/></g>
<g><path style="opacity:0.923" fill="#747eff" d="M 153.5,264.5 C 150.26,265.847 146.76,266.514 143,266.5C 134.513,265.517 126.013,265.351 117.5,266C 116.584,266.278 115.918,266.778 115.5,267.5C 114.226,266.811 114.226,265.977 115.5,265C 128.162,264.5 140.829,264.333 153.5,264.5 Z"/></g>
<g><path style="opacity:0.773" fill="#aaadff" d="M 188.5,263.5 C 189.833,264.167 190.833,265.167 191.5,266.5C 189.5,266.5 188.5,265.5 188.5,263.5 Z"/></g>
<g><path style="opacity:0.518" fill="#a0afff" d="M 209.5,262.5 C 209.573,264.027 208.906,265.027 207.5,265.5C 207.427,263.973 208.094,262.973 209.5,262.5 Z"/></g>
<g><path style="opacity:0.357" fill="#9abffe" d="M 296.5,287.5 C 295.833,271.5 295.167,255.5 294.5,239.5C 294.687,237.436 295.187,235.436 296,233.5C 296.5,251.497 296.667,269.497 296.5,287.5 Z"/></g>
<g><path style="opacity:1" fill="#0ce1ff" d="M 470.5,263.5 C 471.39,265.782 471.556,268.115 471,270.5C 466.541,276.613 462.041,282.613 457.5,288.5C 454.022,291.923 450.022,292.923 445.5,291.5C 444.5,291.167 443.833,290.5 443.5,289.5C 444.161,288.282 444.828,286.949 445.5,285.5C 446.086,285.709 446.586,286.043 447,286.5C 450.57,282.853 454.237,279.186 458,275.5C 460.498,270.503 463.498,265.836 467,261.5C 467.333,262.5 467.667,263.5 468,264.5C 468.671,263.748 469.504,263.414 470.5,263.5 Z"/></g>
<g><path style="opacity:0.725" fill="#9caaff" d="M 115.5,267.5 C 116.906,267.973 117.573,268.973 117.5,270.5C 116.094,270.027 115.427,269.027 115.5,267.5 Z"/></g>
<g><path style="opacity:0.671" fill="#a6beff" d="M 152.5,271.5 C 149.833,271.5 147.167,271.5 144.5,271.5C 147.289,269.286 149.956,269.286 152.5,271.5 Z"/></g>
<g><path style="opacity:0.027" fill="#d2dffe" d="M 40.5,196.5 C 41.4977,221.661 41.8311,246.995 41.5,272.5C 55.6766,272.171 69.6766,272.504 83.5,273.5C 69.1667,273.5 54.8333,273.5 40.5,273.5C 40.5,247.833 40.5,222.167 40.5,196.5 Z"/></g>
<g><path style="opacity:0.937" fill="#9ea7ff" d="M 144.5,271.5 C 143.01,273.28 141.01,273.946 138.5,273.5C 140.302,272.542 142.302,271.875 144.5,271.5 Z"/></g>
<g><path style="opacity:1" fill="#9092ff" d="M 165.5,274.5 C 168.034,275.634 169.367,277.634 169.5,280.5C 167.674,278.853 166.34,276.853 165.5,274.5 Z"/></g>
<g><path style="opacity:1" fill="#35f1fe" d="M 470.5,263.5 C 474.781,266.917 476.448,271.417 475.5,277C 475.236,288.934 469.069,295.434 457,296.5C 452.439,296.251 448.606,294.584 445.5,291.5C 450.022,292.923 454.022,291.923 457.5,288.5C 462.041,282.613 466.541,276.613 471,270.5C 471.556,268.115 471.39,265.782 470.5,263.5 Z"/></g>
<g><path style="opacity:0.616" fill="#b7c2ff" d="M 170.5,282.5 C 173.089,283.419 175.089,285.086 176.5,287.5C 173.911,286.581 171.911,284.914 170.5,282.5 Z"/></g>
<g><path style="opacity:1" fill="#3ce3ff" d="M 370.5,271.5 C 372.883,275.351 375.55,279.184 378.5,283C 381.544,283.363 384.544,283.863 387.5,284.5C 383.644,288.515 379.311,292.015 374.5,295C 369.607,297.11 364.94,296.943 360.5,294.5C 365.021,294.608 368.188,292.608 370,288.5C 370.499,282.843 370.666,277.176 370.5,271.5 Z"/></g>
<g><path style="opacity:0.576" fill="#b1bdff" d="M 98.5,285.5 C 100.027,285.427 101.027,286.094 101.5,287.5C 99.9731,287.573 98.9731,286.906 98.5,285.5 Z"/></g>
<g><path style="opacity:0.659" fill="#9aa8ff" d="M 176.5,287.5 C 178.404,287.738 179.738,288.738 180.5,290.5C 178.596,290.262 177.262,289.262 176.5,287.5 Z"/></g>
<g><path style="opacity:0.235" fill="#bdcbff" d="M 105.5,290.5 C 107.027,290.427 108.027,291.094 108.5,292.5C 106.973,292.573 105.973,291.906 105.5,290.5 Z"/></g>
<g><path style="opacity:0.475" fill="#a6b5ff" d="M 17.5,291.5 C 19.0269,291.427 20.0269,292.094 20.5,293.5C 18.9731,293.573 17.9731,292.906 17.5,291.5 Z"/></g>
<g><path style="opacity:0.345" fill="#b6c4ff" d="M 213.5,291.5 C 215.027,291.427 216.027,292.094 216.5,293.5C 214.973,293.573 213.973,292.906 213.5,291.5 Z"/></g>
<g><path style="opacity:0.404" fill="#adbbff" d="M 297.5,291.5 C 299.027,291.427 300.027,292.094 300.5,293.5C 298.973,293.573 297.973,292.906 297.5,291.5 Z"/></g>
<g><path style="opacity:0.486" fill="#9baaff" d="M 347.5,291.5 C 349.027,291.427 350.027,292.094 350.5,293.5C 348.973,293.573 347.973,292.906 347.5,291.5 Z"/></g>
<g><path style="opacity:0.733" fill="#a8b6ff" d="M 20.5,293.5 C 22.099,293.232 23.4324,293.566 24.5,294.5C 24.5654,294.938 24.3988,295.272 24,295.5C 22.6976,294.915 21.531,294.249 20.5,293.5 Z"/></g>
<g><path style="opacity:0.027" fill="#c8d2ff" d="M 86.5,293.5 C 85.469,294.249 84.3024,294.915 83,295.5C 82.6012,295.272 82.4346,294.938 82.5,294.5C 83.5676,293.566 84.901,293.232 86.5,293.5 Z"/></g>
<g><path style="opacity:0.776" fill="#9aa9ff" d="M 184.5,292.5 C 190.464,293.307 196.464,293.64 202.5,293.5C 196.47,295.647 190.47,295.314 184.5,292.5 Z"/></g>
<g><path style="opacity:0.914" fill="#9198ff" d="M 300.5,293.5 C 305.833,293.5 311.167,293.5 316.5,293.5C 314.863,294.38 313.03,295.046 311,295.5C 307.346,294.938 303.846,294.271 300.5,293.5 Z"/></g>
<g><path style="opacity:0.055" fill="#d3ddff" d="M 148.5,294.5 C 145.456,296.011 142.122,296.678 138.5,296.5C 141.589,295.215 144.922,294.549 148.5,294.5 Z"/></g>
</svg>
